# xmcd CD database file
#
# Track frame offsets:
#	150
#	19627
#	32740
#	49552
#
# Disc length: 955 seconds
#
# Revision: 0
# Processed by: cddbd v1.5.2PL0 Copyright (c) Steve Scherf et al.
# Submitted via: CDex 1.51
#
DISCID=2403b904
DTITLE=Van Morrison - Whenever God Shines His Light
DYEAR=1989
DGENRE=Blues
TTITLE0=Whenever God Shines His Light (7" version)
TTITLE1=I'd Love To Write Another Song
TTITLE2=Cry For Home
TTITLE3=Whenever God Shines His Light (Album version)
EXTD=YEAR: 1989
EXTT0=
EXTT1=
EXTT2=
EXTT3=
PLAYORDER=
